{
	"asset":{
		"generator":"Khronos glTF Blender I/O v4.1.63",
		"version":"2.0"
	},
	"scene":0,
	"scenes":[
		{
			"name":"Scene",
			"nodes":[
				2
			]
		}
	],
	"nodes":[
		{
			"mesh":0,
			"name":"BASE-PART1"
		},
		{
			"children":[
				0
			],
			"name":"BASE_ASM"
		},
		{
			"children":[
				1
			],
			"name":"NOVA2_ASM_ASM"
		}
	],
	"materials":[
		{
			"doubleSided":true,
			"name":"mat_0",
			"pbrMetallicRoughness":{
				"baseColorFactor":[
					0.6038273572921753,
					0.6038273572921753,
					0.6038273572921753,
					1
				],
				"metallicFactor":0.5,
				"roughnessFactor":0.5
			}
		},
		{
			"doubleSided":true,
			"name":"Material.001",
			"pbrMetallicRoughness":{
				"baseColorFactor":[
					0.0339999683201313,
					0.30299901962280273,
					0.6039999723434448,
					1
				],
				"metallicFactor":0.5,
				"roughnessFactor":0.5
			}
		}
	],
	"meshes":[
		{
			"name":"BASE-PART1",
			"primitives":[
				{
					"attributes":{
						"POSITION":0,
						"NORMAL":1
					},
					"indices":2,
					"material":0
				},
				{
					"attributes":{
						"POSITION":3,
						"NORMAL":4
					},
					"indices":5,
					"material":1
				}
			]
		}
	],
	"accessors":[
		{
			"bufferView":0,
			"componentType":5126,
			"count":11066,
			"max":[
				0.059999868273735046,
				0.13480310142040253,
				0.08454806357622147
			],
			"min":[
				-0.06000013276934624,
				4.614703357219696e-07,
				-0.06000000238418579
			],
			"type":"VEC3"
		},
		{
			"bufferView":1,
			"componentType":5126,
			"count":11066,
			"type":"VEC3"
		},
		{
			"bufferView":2,
			"componentType":5123,
			"count":41934,
			"type":"SCALAR"
		},
		{
			"bufferView":3,
			"componentType":5126,
			"count":448,
			"max":[
				0.04399987682700157,
				0.1348029226064682,
				0.04399999603629112
			],
			"min":[
				-0.044000137597322464,
				0.1283029168844223,
				-0.04400001838803291
			],
			"type":"VEC3"
		},
		{
			"bufferView":4,
			"componentType":5126,
			"count":448,
			"type":"VEC3"
		},
		{
			"bufferView":5,
			"componentType":5123,
			"count":1320,
			"type":"SCALAR"
		}
	],
	"bufferViews":[
		{
			"buffer":0,
			"byteLength":132792,
			"byteOffset":0,
			"target":34962
		},
		{
			"buffer":0,
			"byteLength":132792,
			"byteOffset":132792,
			"target":34962
		},
		{
			"buffer":0,
			"byteLength":83868,
			"byteOffset":265584,
			"target":34963
		},
		{
			"buffer":0,
			"byteLength":5376,
			"byteOffset":349452,
			"target":34962
		},
		{
			"buffer":0,
			"byteLength":5376,
			"byteOffset":354828,
			"target":34962
		},
		{
			"buffer":0,
			"byteLength":2640,
			"byteOffset":360204,
			"target":34963
		}
	],
	"buffers":[
		{
			"byteLength":362844,
			"uri":"NOVA2_BASE_ASM.bin"
		}
	]
}
