{
	"asset":{
		"generator":"Khronos glTF Blender I/O v4.1.63",
		"version":"2.0"
	},
	"scene":0,
	"scenes":[
		{
			"name":"Scene",
			"nodes":[
				0
			]
		}
	],
	"nodes":[
		{
			"mesh":0,
			"name":"GB_T70P3_M2P5X6_2_1_1_2_1_1_1_1"
		}
	],
	"materials":[
		{
			"doubleSided":true,
			"name":"mat_0",
			"pbrMetallicRoughness":{
				"baseColorFactor":[
					0.972000002861023,
					0.9600000381469727,
					0.9150000214576721,
					1
				],
				"metallicFactor":0.5,
				"roughnessFactor":0.5
			}
		}
	],
	"meshes":[
		{
			"name":"GB_T70P3_M2P5X6_2_1_1_2_1_1_1_1",
			"primitives":[
				{
					"attributes":{
						"POSITION":0,
						"NORMAL":1
					},
					"indices":2,
					"material":0
				}
			]
		}
	],
	"accessors":[
		{
			"bufferView":0,
			"componentType":5126,
			"count":33089,
			"max":[
				0.035000529140233994,
				0.034999728202819824,
				0.08751349151134491
			],
			"min":[
				-0.03499947115778923,
				-0.041500333696603775,
				0.051513489335775375
			],
			"type":"VEC3"
		},
		{
			"bufferView":1,
			"componentType":5126,
			"count":33089,
			"type":"VEC3"
		},
		{
			"bufferView":2,
			"componentType":5123,
			"count":121692,
			"type":"SCALAR"
		}
	],
	"bufferViews":[
		{
			"buffer":0,
			"byteLength":397068,
			"byteOffset":0,
			"target":34962
		},
		{
			"buffer":0,
			"byteLength":397068,
			"byteOffset":397068,
			"target":34962
		},
		{
			"buffer":0,
			"byteLength":243384,
			"byteOffset":794136,
			"target":34963
		}
	],
	"buffers":[
		{
			"byteLength":1037520,
			"uri":"NOVA2_J6_ASM.bin"
		}
	]
}
