{
	"asset":{
		"generator":"Khronos glTF Blender I/O v4.1.63",
		"version":"2.0"
	},
	"scene":0,
	"scenes":[
		{
			"name":"Scene",
			"nodes":[
				0,
				1
			]
		}
	],
	"nodes":[
		{
			"name":"BASE_ASM"
		},
		{
			"mesh":0,
			"name":"J1-PART2",
			"translation":[
				0,
				0.22291000187397003,
				0
			]
		}
	],
	"materials":[
		{
			"doubleSided":true,
			"name":"Material.004",
			"pbrMetallicRoughness":{
				"baseColorFactor":[
					0.0339999683201313,
					0.30299901962280273,
					0.6039999723434448,
					1
				],
				"metallicFactor":0.5,
				"roughnessFactor":0.5
			}
		},
		{
			"doubleSided":true,
			"name":"mat_0.003",
			"pbrMetallicRoughness":{
				"baseColorFactor":[
					0.6038273572921753,
					0.6038273572921753,
					0.6038273572921753,
					1
				],
				"metallicFactor":0.5,
				"roughnessFactor":0.5
			}
		}
	],
	"meshes":[
		{
			"name":"J1-PART2.001",
			"primitives":[
				{
					"attributes":{
						"POSITION":0,
						"NORMAL":1
					},
					"indices":2,
					"material":0
				},
				{
					"attributes":{
						"POSITION":3,
						"NORMAL":4
					},
					"indices":5,
					"material":1
				}
			]
		}
	],
	"accessors":[
		{
			"bufferView":0,
			"componentType":5126,
			"count":4061,
			"max":[
				4.0140872670235694e-07,
				0.04449951648712158,
				0.04414347559213638
			],
			"min":[
				-0.04463328421115875,
				-0.046000778675079346,
				-0.044145382940769196
			],
			"type":"VEC3"
		},
		{
			"bufferView":1,
			"componentType":5126,
			"count":4061,
			"type":"VEC3"
		},
		{
			"bufferView":2,
			"componentType":5123,
			"count":15534,
			"type":"SCALAR"
		},
		{
			"bufferView":3,
			"componentType":5126,
			"count":1914,
			"max":[
				0.07759997993707657,
				0.04449957609176636,
				0.04449313506484032
			],
			"min":[
				-0.044499874114990234,
				-0.08810746669769287,
				-0.04449324682354927
			],
			"type":"VEC3"
		},
		{
			"bufferView":4,
			"componentType":5126,
			"count":1914,
			"type":"VEC3"
		},
		{
			"bufferView":5,
			"componentType":5123,
			"count":7212,
			"type":"SCALAR"
		}
	],
	"bufferViews":[
		{
			"buffer":0,
			"byteLength":48732,
			"byteOffset":0,
			"target":34962
		},
		{
			"buffer":0,
			"byteLength":48732,
			"byteOffset":48732,
			"target":34962
		},
		{
			"buffer":0,
			"byteLength":31068,
			"byteOffset":97464,
			"target":34963
		},
		{
			"buffer":0,
			"byteLength":22968,
			"byteOffset":128532,
			"target":34962
		},
		{
			"buffer":0,
			"byteLength":22968,
			"byteOffset":151500,
			"target":34962
		},
		{
			"buffer":0,
			"byteLength":14424,
			"byteOffset":174468,
			"target":34963
		}
	],
	"buffers":[
		{
			"byteLength":188892,
			"uri":"NOVA2_J1_ASM.bin"
		}
	]
}
