{
	"asset":{
		"generator":"Khronos glTF Blender I/O v4.1.63",
		"version":"2.0"
	},
	"scene":0,
	"scenes":[
		{
			"name":"Scene",
			"nodes":[
				0
			]
		}
	],
	"nodes":[
		{
			"mesh":0,
			"name":"J3-PART1"
		}
	],
	"materials":[
		{
			"doubleSided":true,
			"name":"Material.013",
			"pbrMetallicRoughness":{
				"baseColorFactor":[
					0.0339999683201313,
					0.30299901962280273,
					0.6039999723434448,
					1
				],
				"metallicFactor":0.5,
				"roughnessFactor":0.5
			}
		},
		{
			"doubleSided":true,
			"name":"mat_0.012",
			"pbrMetallicRoughness":{
				"baseColorFactor":[
					0.6038273572921753,
					0.6038273572921753,
					0.6038273572921753,
					1
				],
				"metallicFactor":0.5,
				"roughnessFactor":0.5
			}
		}
	],
	"meshes":[
		{
			"name":"J3-PART1.003",
			"primitives":[
				{
					"attributes":{
						"POSITION":0,
						"NORMAL":1
					},
					"indices":2,
					"material":0
				},
				{
					"attributes":{
						"POSITION":3,
						"NORMAL":4
					},
					"indices":5,
					"material":1
				}
			]
		}
	],
	"accessors":[
		{
			"bufferView":0,
			"componentType":5126,
			"count":6547,
			"max":[
				-0.009499998763203621,
				0.2608676254749298,
				0.040998540818691254
			],
			"min":[
				-0.04268259555101395,
				-0.04087108373641968,
				-0.040998540818691254
			],
			"type":"VEC3"
		},
		{
			"bufferView":1,
			"componentType":5126,
			"count":6547,
			"type":"VEC3"
		},
		{
			"bufferView":2,
			"componentType":5123,
			"count":25284,
			"type":"SCALAR"
		},
		{
			"bufferView":3,
			"componentType":5126,
			"count":3268,
			"max":[
				0.07449999451637268,
				0.2608640491962433,
				0.04099997878074646
			],
			"min":[
				-0.014000002294778824,
				-0.040864020586013794,
				-0.040999963879585266
			],
			"type":"VEC3"
		},
		{
			"bufferView":4,
			"componentType":5126,
			"count":3268,
			"type":"VEC3"
		},
		{
			"bufferView":5,
			"componentType":5123,
			"count":12198,
			"type":"SCALAR"
		}
	],
	"bufferViews":[
		{
			"buffer":0,
			"byteLength":78564,
			"byteOffset":0,
			"target":34962
		},
		{
			"buffer":0,
			"byteLength":78564,
			"byteOffset":78564,
			"target":34962
		},
		{
			"buffer":0,
			"byteLength":50568,
			"byteOffset":157128,
			"target":34963
		},
		{
			"buffer":0,
			"byteLength":39216,
			"byteOffset":207696,
			"target":34962
		},
		{
			"buffer":0,
			"byteLength":39216,
			"byteOffset":246912,
			"target":34962
		},
		{
			"buffer":0,
			"byteLength":24396,
			"byteOffset":286128,
			"target":34963
		}
	],
	"buffers":[
		{
			"byteLength":310524,
			"uri":"NOVA2_J3_ASM.bin"
		}
	]
}
