{
	"asset":{
		"generator":"Khronos glTF Blender I/O v4.1.63",
		"version":"2.0"
	},
	"scene":0,
	"scenes":[
		{
			"name":"Scene",
			"nodes":[
				0
			]
		}
	],
	"nodes":[
		{
			"mesh":0,
			"name":"J5-PART1"
		}
	],
	"materials":[
		{
			"doubleSided":true,
			"name":"mat_0",
			"pbrMetallicRoughness":{
				"baseColorFactor":[
					0.6038273572921753,
					0.6038273572921753,
					0.6038273572921753,
					1
				],
				"metallicFactor":0.5,
				"roughnessFactor":0.5
			}
		},
		{
			"doubleSided":true,
			"name":"Material.001",
			"pbrMetallicRoughness":{
				"baseColorFactor":[
					0.0339999683201313,
					0.30299901962280273,
					0.6039999723434448,
					1
				],
				"metallicFactor":0.5,
				"roughnessFactor":0.5
			}
		}
	],
	"meshes":[
		{
			"name":"J5-PART1",
			"primitives":[
				{
					"attributes":{
						"POSITION":0,
						"NORMAL":1
					},
					"indices":2,
					"material":0
				},
				{
					"attributes":{
						"POSITION":3,
						"NORMAL":4
					},
					"indices":5,
					"material":1
				}
			]
		}
	],
	"accessors":[
		{
			"bufferView":0,
			"componentType":5126,
			"count":21615,
			"max":[
				0.03571999818086624,
				0.03526955470442772,
				0.06450197100639343
			],
			"min":[
				-0.03581614792346954,
				-0.056004706770181656,
				-0.06199807673692703
			],
			"type":"VEC3"
		},
		{
			"bufferView":1,
			"componentType":5126,
			"count":21615,
			"type":"VEC3"
		},
		{
			"bufferView":2,
			"componentType":5123,
			"count":82899,
			"type":"SCALAR"
		},
		{
			"bufferView":3,
			"componentType":5126,
			"count":8263,
			"max":[
				0.03530670329928398,
				0.0353730283677578,
				0.05150198936462402
			],
			"min":[
				-0.035438988357782364,
				-0.0345425046980381,
				-0.06178150326013565
			],
			"type":"VEC3"
		},
		{
			"bufferView":4,
			"componentType":5126,
			"count":8263,
			"type":"VEC3"
		},
		{
			"bufferView":5,
			"componentType":5123,
			"count":33966,
			"type":"SCALAR"
		}
	],
	"bufferViews":[
		{
			"buffer":0,
			"byteLength":259380,
			"byteOffset":0,
			"target":34962
		},
		{
			"buffer":0,
			"byteLength":259380,
			"byteOffset":259380,
			"target":34962
		},
		{
			"buffer":0,
			"byteLength":165798,
			"byteOffset":518760,
			"target":34963
		},
		{
			"buffer":0,
			"byteLength":99156,
			"byteOffset":684560,
			"target":34962
		},
		{
			"buffer":0,
			"byteLength":99156,
			"byteOffset":783716,
			"target":34962
		},
		{
			"buffer":0,
			"byteLength":67932,
			"byteOffset":882872,
			"target":34963
		}
	],
	"buffers":[
		{
			"byteLength":950804,
			"uri":"NOVA2_J5_ASM.bin"
		}
	]
}
