{
	"asset":{
		"generator":"Khronos glTF Blender I/O v4.1.63",
		"version":"2.0"
	},
	"scene":0,
	"scenes":[
		{
			"name":"Scene",
			"nodes":[
				0
			]
		}
	],
	"nodes":[
		{
			"mesh":0,
			"name":"J2-PART1"
		}
	],
	"materials":[
		{
			"doubleSided":true,
			"name":"mat_0.004",
			"pbrMetallicRoughness":{
				"baseColorFactor":[
					0.6038273572921753,
					0.6038273572921753,
					0.6038273572921753,
					1
				],
				"metallicFactor":0.5,
				"roughnessFactor":0.5
			}
		},
		{
			"doubleSided":true,
			"name":"Material.005",
			"pbrMetallicRoughness":{
				"baseColorFactor":[
					0.0339999683201313,
					0.30299901962280273,
					0.6039999723434448,
					1
				],
				"metallicFactor":0.5,
				"roughnessFactor":0.5
			}
		}
	],
	"meshes":[
		{
			"name":"J2-PART1",
			"primitives":[
				{
					"attributes":{
						"POSITION":0,
						"NORMAL":1
					},
					"indices":2,
					"material":0
				},
				{
					"attributes":{
						"POSITION":3,
						"NORMAL":4
					},
					"indices":5,
					"material":1
				}
			]
		}
	],
	"accessors":[
		{
			"bufferView":0,
			"componentType":5126,
			"count":4004,
			"max":[
				0.12101003527641296,
				0.32125794887542725,
				0.044998738914728165
			],
			"min":[
				0.02400999888777733,
				-0.045425042510032654,
				-0.044998738914728165
			],
			"type":"VEC3"
		},
		{
			"bufferView":1,
			"componentType":5126,
			"count":4004,
			"type":"VEC3"
		},
		{
			"bufferView":2,
			"componentType":5123,
			"count":11958,
			"type":"SCALAR"
		},
		{
			"bufferView":3,
			"componentType":5126,
			"count":7900,
			"max":[
				0.153506338596344,
				0.32125747203826904,
				0.044980648905038834
			],
			"min":[
				0.11651000380516052,
				-0.04542545974254608,
				-0.04500122740864754
			],
			"type":"VEC3"
		},
		{
			"bufferView":4,
			"componentType":5126,
			"count":7900,
			"type":"VEC3"
		},
		{
			"bufferView":5,
			"componentType":5123,
			"count":34410,
			"type":"SCALAR"
		}
	],
	"bufferViews":[
		{
			"buffer":0,
			"byteLength":48048,
			"byteOffset":0,
			"target":34962
		},
		{
			"buffer":0,
			"byteLength":48048,
			"byteOffset":48048,
			"target":34962
		},
		{
			"buffer":0,
			"byteLength":23916,
			"byteOffset":96096,
			"target":34963
		},
		{
			"buffer":0,
			"byteLength":94800,
			"byteOffset":120012,
			"target":34962
		},
		{
			"buffer":0,
			"byteLength":94800,
			"byteOffset":214812,
			"target":34962
		},
		{
			"buffer":0,
			"byteLength":68820,
			"byteOffset":309612,
			"target":34963
		}
	],
	"buffers":[
		{
			"byteLength":378432,
			"uri":"NOVA2_J2_ASM.bin"
		}
	]
}
