{
	"asset":{
		"generator":"Khronos glTF Blender I/O v4.1.63",
		"version":"2.0"
	},
	"scene":0,
	"scenes":[
		{
			"name":"Scene",
			"nodes":[
				0
			]
		}
	],
	"nodes":[
		{
			"mesh":0,
			"name":"J4-PART2"
		}
	],
	"materials":[
		{
			"doubleSided":true,
			"name":"Material.015",
			"pbrMetallicRoughness":{
				"baseColorFactor":[
					0.0339999683201313,
					0.30299901962280273,
					0.6039999723434448,
					1
				],
				"metallicFactor":0.5,
				"roughnessFactor":0.5
			}
		},
		{
			"doubleSided":true,
			"name":"mat_0.014",
			"pbrMetallicRoughness":{
				"baseColorFactor":[
					0.6038273572921753,
					0.6038273572921753,
					0.6038273572921753,
					1
				],
				"metallicFactor":0.5,
				"roughnessFactor":0.5
			}
		}
	],
	"meshes":[
		{
			"name":"J4-PART2.002",
			"primitives":[
				{
					"attributes":{
						"POSITION":0,
						"NORMAL":1
					},
					"indices":2,
					"material":0
				},
				{
					"attributes":{
						"POSITION":3,
						"NORMAL":4
					},
					"indices":5,
					"material":1
				}
			]
		}
	],
	"accessors":[
		{
			"bufferView":0,
			"componentType":5126,
			"count":5970,
			"max":[
				0.15186350047588348,
				0.03600000962615013,
				0.03502285107970238
			],
			"min":[
				0.08179488778114319,
				-0.03494996204972267,
				-0.03501981869339943
			],
			"type":"VEC3"
		},
		{
			"bufferView":1,
			"componentType":5126,
			"count":5970,
			"type":"VEC3"
		},
		{
			"bufferView":2,
			"componentType":5123,
			"count":22086,
			"type":"SCALAR"
		},
		{
			"bufferView":3,
			"componentType":5126,
			"count":2360,
			"max":[
				0.15201367437839508,
				0.07649999111890793,
				0.03550153598189354
			],
			"min":[
				0.045513808727264404,
				-0.034999970346689224,
				-0.03549850359559059
			],
			"type":"VEC3"
		},
		{
			"bufferView":4,
			"componentType":5126,
			"count":2360,
			"type":"VEC3"
		},
		{
			"bufferView":5,
			"componentType":5123,
			"count":8676,
			"type":"SCALAR"
		}
	],
	"bufferViews":[
		{
			"buffer":0,
			"byteLength":71640,
			"byteOffset":0,
			"target":34962
		},
		{
			"buffer":0,
			"byteLength":71640,
			"byteOffset":71640,
			"target":34962
		},
		{
			"buffer":0,
			"byteLength":44172,
			"byteOffset":143280,
			"target":34963
		},
		{
			"buffer":0,
			"byteLength":28320,
			"byteOffset":187452,
			"target":34962
		},
		{
			"buffer":0,
			"byteLength":28320,
			"byteOffset":215772,
			"target":34962
		},
		{
			"buffer":0,
			"byteLength":17352,
			"byteOffset":244092,
			"target":34963
		}
	],
	"buffers":[
		{
			"byteLength":261444,
			"uri":"NOVA2_J4_ASM.bin"
		}
	]
}
